<svg version="1.1" id="Layer_1" xmlns="http://www.w3.org/2000/svg" xmlns:xlink="http://www.w3.org/1999/xlink" x="0px" y="0px"
	 width="100%" preserveAspectRatio="xMidYMid meet" viewBox="0 0 1000 500" enable-background="new 0 0 500 500" xml:space="preserve">
<path fill="#FFFFFF" opacity="1.000000" stroke="none" 
	d="
M501.000000,182.000000 
	C501.000000,288.666656 501.000000,394.833282 501.000000,500.999939 
	C334.333405,500.999969 167.666794,500.999969 1.000146,501.000000 
	C1.000098,334.333435 1.000098,167.666870 1.000049,1.000236 
	C167.666519,1.000157 334.333038,1.000157 500.999786,1.000079 
	C501.000000,61.166668 501.000000,121.333336 501.000000,182.000000 
M71.650787,75.148872 
	C71.822746,76.103104 71.994705,77.057327 72.074661,78.541138 
	C72.377708,78.638535 72.680763,78.735939 73.771210,78.985512 
	C74.879295,78.793060 76.014969,78.697601 77.090759,78.391602 
	C82.125565,76.959480 87.133278,74.238060 92.169762,74.194717 
	C132.615326,73.846672 173.065186,73.997559 213.513733,74.010078 
	C214.947586,74.010521 216.381409,74.159256 218.166656,74.258392 
	C218.166656,79.069008 218.166656,83.540283 218.074661,88.541138 
	C218.377716,88.638535 218.680771,88.735939 219.835922,88.985641 
	C220.830673,88.982407 221.874893,89.178650 222.812775,88.946083 
	C237.439514,85.319130 252.381531,84.487656 267.344818,84.067574 
	C272.555756,83.921280 277.788635,84.555550 283.541077,84.925369 
	C283.638489,84.622307 283.735931,84.319252 283.985596,83.104958 
	C283.985596,80.164490 283.985596,77.224014 283.985596,74.000000 
	C286.306519,74.000000 288.108704,74.000000 289.910858,74.000000 
	C326.883057,74.000000 363.855560,74.085518 400.827209,73.944427 
	C411.033844,73.905472 421.103729,73.750488 429.725739,81.840607 
	C431.896820,74.760483 433.159882,68.441498 430.914703,62.095436 
	C428.183167,54.374741 421.526276,51.137802 413.326843,48.992462 
	C425.540466,39.077782 437.374634,29.668877 431.925354,11.458841 
	C431.622284,11.361450 431.319214,11.264059 430.306732,11.018209 
	C420.578888,19.307400 409.152008,21.141521 396.701416,21.115524 
	C297.496124,20.908396 198.289978,21.083752 99.085037,20.805302 
	C92.697578,20.787373 86.217453,18.292543 79.976273,16.327843 
	C76.757706,15.314651 73.970535,12.931053 70.458862,11.074665 
	C70.361458,11.377712 70.264061,11.680759 70.013344,12.836288 
	C67.288651,22.785091 69.307251,31.424583 77.028412,38.537128 
	C80.651291,41.874439 84.199219,45.293118 87.899765,48.786953 
	C71.829124,56.018875 69.406387,59.524990 70.074661,74.541138 
	C70.377708,74.638535 70.680763,74.735931 71.650787,75.148872 
M362.504150,268.946014 
	C352.141907,265.466919 341.779694,261.987823 331.420624,258.509827 
	C335.268982,256.317566 339.005341,254.102585 342.819611,252.031082 
	C360.702301,242.319107 375.613464,229.620407 383.825500,210.455307 
	C392.594574,189.990082 392.510437,169.410339 383.503357,149.033096 
	C374.868835,129.498657 359.426575,116.552902 340.960754,107.092110 
	C321.799408,97.274971 301.107880,91.824730 279.761993,90.206261 
	C258.409332,88.587273 237.031708,90.136978 216.150742,95.438087 
	C194.430008,100.952385 173.540222,108.746559 153.462860,118.788475 
	C140.921555,125.061150 128.359756,127.441071 116.765358,115.611816 
	C118.134842,114.722130 119.444550,113.876755 120.748772,113.023003 
	C126.110229,109.513397 130.411423,105.236855 128.924194,98.162895 
	C127.779556,92.718521 123.083565,90.712936 118.394142,89.194672 
	C112.291512,87.218864 106.190979,88.193314 100.263954,90.051765 
	C93.583275,92.146545 88.695831,98.400032 89.156029,105.383400 
	C89.500191,110.605881 90.225853,116.299606 92.648087,120.772827 
	C96.314362,127.543465 101.020912,133.989136 106.332870,139.577209 
	C115.431038,149.148331 120.257172,159.615921 120.173866,173.212509 
	C119.782837,237.029968 120.184677,300.852478 119.726753,364.669067 
	C119.678658,371.372040 117.267006,379.043335 113.446732,384.516815 
	C106.720497,394.153778 98.527267,402.920166 90.077187,411.157440 
	C81.657707,419.364838 78.276581,428.891632 80.163330,440.020538 
	C81.492851,447.862610 84.987938,455.050201 93.962990,456.952301 
	C97.761383,457.757263 101.835197,458.359406 105.631615,457.870850 
	C116.915146,456.418854 125.159332,447.040863 118.991516,435.261261 
	C117.062561,431.577240 114.494522,428.227875 112.206650,424.706268 
	C121.483246,419.578888 131.263947,419.461212 141.256744,422.675293 
	C150.729645,425.722168 160.154099,428.920380 169.636703,431.936218 
	C193.294861,439.460480 217.454117,445.186401 242.197220,446.737061 
	C262.414581,448.004028 282.908783,448.251221 302.899597,443.854340 
	C321.471619,439.769531 339.482239,433.878113 356.025543,424.049805 
	C370.025635,415.732300 382.388031,405.419586 391.770172,392.274292 
	C405.144897,373.534973 413.092438,352.923096 410.122406,329.068695 
	C408.297882,314.414490 402.696594,301.775970 393.188873,290.708862 
	C384.950348,281.119110 374.656616,274.324402 362.504150,268.946014 
M250.851501,452.958099 
	C249.930267,452.639832 249.026566,452.115082 248.085098,452.035156 
	C238.183716,451.194611 228.276321,450.425110 217.922943,449.600372 
	C218.699005,462.916046 218.311310,476.432953 207.582230,486.951569 
	C216.272476,492.721893 232.444641,495.323486 251.025818,478.045868 
	C269.193909,495.111023 285.625702,492.891083 294.374329,486.922302 
	C284.722626,477.278442 283.152069,465.047791 284.014465,452.996521 
	C272.902435,452.996521 262.351929,452.996521 250.851501,452.958099 
z"/>
<path fill="#1C1B17" opacity="1.000000" stroke="none" 
	d="
M362.895660,268.989624 
	C374.656616,274.324402 384.950348,281.119110 393.188873,290.708862 
	C402.696594,301.775970 408.297882,314.414490 410.122406,329.068695 
	C413.092438,352.923096 405.144897,373.534973 391.770172,392.274292 
	C382.388031,405.419586 370.025635,415.732300 356.025543,424.049805 
	C339.482239,433.878113 321.471619,439.769531 302.899597,443.854340 
	C282.908783,448.251221 262.414581,448.004028 242.197220,446.737061 
	C217.454117,445.186401 193.294861,439.460480 169.636703,431.936218 
	C160.154099,428.920380 150.729645,425.722168 141.256744,422.675293 
	C131.263947,419.461212 121.483246,419.578888 112.206650,424.706268 
	C114.494522,428.227875 117.062561,431.577240 118.991516,435.261261 
	C125.159332,447.040863 116.915146,456.418854 105.631615,457.870850 
	C101.835197,458.359406 97.761383,457.757263 93.962990,456.952301 
	C84.987938,455.050201 81.492851,447.862610 80.163330,440.020538 
	C78.276581,428.891632 81.657707,419.364838 90.077187,411.157440 
	C98.527267,402.920166 106.720497,394.153778 113.446732,384.516815 
	C117.267006,379.043335 119.678658,371.372040 119.726753,364.669067 
	C120.184677,300.852478 119.782837,237.029968 120.173866,173.212509 
	C120.257172,159.615921 115.431038,149.148331 106.332870,139.577209 
	C101.020912,133.989136 96.314362,127.543465 92.648087,120.772827 
	C90.225853,116.299606 89.500191,110.605881 89.156029,105.383400 
	C88.695831,98.400032 93.583275,92.146545 100.263954,90.051765 
	C106.190979,88.193314 112.291512,87.218864 118.394142,89.194672 
	C123.083565,90.712936 127.779556,92.718521 128.924194,98.162895 
	C130.411423,105.236855 126.110229,109.513397 120.748772,113.023003 
	C119.444550,113.876755 118.134842,114.722130 116.765358,115.611816 
	C128.359756,127.441071 140.921555,125.061150 153.462860,118.788475 
	C173.540222,108.746559 194.430008,100.952385 216.150742,95.438087 
	C237.031708,90.136978 258.409332,88.587273 279.761993,90.206261 
	C301.107880,91.824730 321.799408,97.274971 340.960754,107.092110 
	C359.426575,116.552902 374.868835,129.498657 383.503357,149.033096 
	C392.510437,169.410339 392.594574,189.990082 383.825500,210.455307 
	C375.613464,229.620407 360.702301,242.319107 342.819611,252.031082 
	C339.005341,254.102585 335.268982,256.317566 331.420624,258.509827 
	C341.779694,261.987823 352.141907,265.466919 362.895660,268.989624 
M289.000000,241.842422 
	C288.685394,239.076050 289.555908,237.828979 292.523834,236.581650 
	C301.990540,232.603104 311.019165,227.644058 317.841736,219.626129 
	C327.466949,208.314468 331.620514,195.427017 328.232605,180.681839 
	C323.844238,161.582108 310.478973,150.789719 293.214264,144.035263 
	C275.383179,137.059204 256.852509,136.944153 238.095444,138.938354 
	C222.149734,140.633698 207.747528,146.274567 194.602325,155.159515 
	C185.003967,161.647125 178.776337,170.927307 178.200607,182.472351 
	C177.404816,198.430344 177.959213,214.458084 178.086258,230.454742 
	C178.095566,231.628113 179.057556,233.423386 180.037338,233.836243 
	C182.532806,234.887833 185.272125,235.398239 187.944641,235.985077 
	C196.249252,237.808533 204.568192,239.566864 212.696442,241.310760 
	C212.696442,254.399551 212.696442,267.156586 212.696442,278.904633 
	C202.037216,281.689087 191.926361,284.438080 181.750458,286.920441 
	C178.838501,287.630798 177.901932,288.878265 177.926346,291.902466 
	C178.074173,310.231934 177.765991,328.567688 178.114136,346.891724 
	C178.255173,354.314575 180.467148,361.379913 184.342880,367.970947 
	C190.773132,378.906281 200.970139,385.508698 211.716614,390.687378 
	C233.501373,401.185333 256.710083,404.130035 280.775635,401.077423 
	C296.784302,399.046814 311.482269,394.343140 324.423035,384.276825 
	C341.478882,371.009491 349.518066,353.545990 346.703735,332.487122 
	C344.010864,312.337616 332.322571,297.301666 314.032898,288.110168 
	C306.078369,284.112610 297.567871,281.221283 289.000000,277.700165 
	C289.000000,266.421051 289.000000,254.596146 289.000000,241.842422 
z"/>
<path fill="#1C1B17" opacity="1.000000" stroke="none" 
	d="
M218.166656,88.011559 
	C218.166656,83.540283 218.166656,79.069008 218.166656,74.258392 
	C216.381409,74.159256 214.947586,74.010521 213.513733,74.010078 
	C173.065186,73.997559 132.615326,73.846672 92.169762,74.194717 
	C87.133278,74.238060 82.125565,76.959480 77.090759,78.391602 
	C76.014969,78.697601 74.879295,78.793060 73.285484,78.732773 
	C72.635803,78.260269 72.424767,78.104103 72.166664,78.011559 
	C71.994705,77.057327 71.822746,76.103104 71.225273,74.814453 
	C70.635803,74.260269 70.424767,74.104103 70.166664,74.011559 
	C69.406387,59.524990 71.829124,56.018875 87.899765,48.786953 
	C84.199219,45.293118 80.651291,41.874439 77.028412,38.537128 
	C69.307251,31.424583 67.288651,22.785091 70.266647,12.318026 
	C70.739723,11.635800 70.895882,11.424768 70.988441,11.166666 
	C73.970535,12.931053 76.757706,15.314651 79.976273,16.327843 
	C86.217453,18.292543 92.697578,20.787373 99.085037,20.805302 
	C198.289978,21.083752 297.496124,20.908396 396.701416,21.115524 
	C409.152008,21.141521 420.578888,19.307400 430.753479,11.269068 
	C431.364197,11.739708 431.575226,11.895870 431.833344,11.988416 
	C437.374634,29.668877 425.540466,39.077782 413.326843,48.992462 
	C421.526276,51.137802 428.183167,54.374741 430.914703,62.095436 
	C433.159882,68.441498 431.896820,74.760483 429.725739,81.840607 
	C421.103729,73.750488 411.033844,73.905472 400.827209,73.944427 
	C363.855560,74.085518 326.883057,74.000000 289.910858,74.000000 
	C288.108704,74.000000 286.306519,74.000000 283.985596,74.000000 
	C283.985596,77.224014 283.985596,80.164490 283.732849,83.652618 
	C283.260284,84.364220 283.104095,84.575241 283.011475,84.833328 
	C277.788635,84.555550 272.555756,83.921280 267.344818,84.067574 
	C252.381531,84.487656 237.439514,85.319130 222.812775,88.946083 
	C221.874893,89.178650 220.830673,88.982407 219.317841,88.732849 
	C218.635788,88.260284 218.424759,88.104126 218.166656,88.011559 
z"/>
<path fill="#1C1B17" opacity="1.000000" stroke="none" 
	d="
M251.326477,452.977295 
	C262.351929,452.996521 272.902435,452.996521 284.014465,452.996521 
	C283.152069,465.047791 284.722626,477.278442 294.374329,486.922302 
	C285.625702,492.891083 269.193909,495.111023 251.025818,478.045868 
	C232.444641,495.323486 216.272476,492.721893 207.582230,486.951569 
	C218.311310,476.432953 218.699005,462.916046 217.922943,449.600372 
	C228.276321,450.425110 238.183716,451.194611 248.085098,452.035156 
	C249.026566,452.115082 249.930267,452.639832 251.326477,452.977295 
z"/>
<path fill="#1C1B17" opacity="1.000000" stroke="none" 
	d="
M70.723648,11.120666 
	C70.895882,11.424768 70.739723,11.635800 70.343307,11.891784 
	C70.264061,11.680759 70.361458,11.377712 70.723648,11.120666 
z"/>
<path fill="#1C1B17" opacity="1.000000" stroke="none" 
	d="
M431.879333,11.723629 
	C431.575226,11.895870 431.364197,11.739708 431.108185,11.343297 
	C431.319214,11.264059 431.622284,11.361450 431.879333,11.723629 
z"/>
<path fill="#1C1B17" opacity="1.000000" stroke="none" 
	d="
M70.120667,74.276352 
	C70.424767,74.104103 70.635803,74.260269 70.891785,74.656693 
	C70.680763,74.735931 70.377708,74.638535 70.120667,74.276352 
z"/>
<path fill="#1C1B17" opacity="1.000000" stroke="none" 
	d="
M72.120667,78.276352 
	C72.424767,78.104103 72.635803,78.260269 72.891785,78.656693 
	C72.680763,78.735939 72.377708,78.638535 72.120667,78.276352 
z"/>
<path fill="#1C1B17" opacity="1.000000" stroke="none" 
	d="
M283.276276,84.879349 
	C283.104095,84.575241 283.260284,84.364220 283.656708,84.108231 
	C283.735931,84.319252 283.638489,84.622307 283.276276,84.879349 
z"/>
<path fill="#1C1B17" opacity="1.000000" stroke="none" 
	d="
M218.120667,88.276352 
	C218.424759,88.104126 218.635788,88.260284 218.891785,88.656693 
	C218.680771,88.735939 218.377716,88.638535 218.120667,88.276352 
z"/>
<path fill="#FFFFFF" opacity="1.000000" stroke="none" 
	d="
M289.000000,242.306824 
	C289.000000,254.596146 289.000000,266.421051 289.000000,277.700165 
	C297.567871,281.221283 306.078369,284.112610 314.032898,288.110168 
	C332.322571,297.301666 344.010864,312.337616 346.703735,332.487122 
	C349.518066,353.545990 341.478882,371.009491 324.423035,384.276825 
	C311.482269,394.343140 296.784302,399.046814 280.775635,401.077423 
	C256.710083,404.130035 233.501373,401.185333 211.716614,390.687378 
	C200.970139,385.508698 190.773132,378.906281 184.342880,367.970947 
	C180.467148,361.379913 178.255173,354.314575 178.114136,346.891724 
	C177.765991,328.567688 178.074173,310.231934 177.926346,291.902466 
	C177.901932,288.878265 178.838501,287.630798 181.750458,286.920441 
	C191.926361,284.438080 202.037216,281.689087 212.696442,278.904633 
	C212.696442,267.156586 212.696442,254.399551 212.696442,241.310760 
	C204.568192,239.566864 196.249252,237.808533 187.944641,235.985077 
	C185.272125,235.398239 182.532806,234.887833 180.037338,233.836243 
	C179.057556,233.423386 178.095566,231.628113 178.086258,230.454742 
	C177.959213,214.458084 177.404816,198.430344 178.200607,182.472351 
	C178.776337,170.927307 185.003967,161.647125 194.602325,155.159515 
	C207.747528,146.274567 222.149734,140.633698 238.095444,138.938354 
	C256.852509,136.944153 275.383179,137.059204 293.214264,144.035263 
	C310.478973,150.789719 323.844238,161.582108 328.232605,180.681839 
	C331.620514,195.427017 327.466949,208.314468 317.841736,219.626129 
	C311.019165,227.644058 301.990540,232.603104 292.523834,236.581650 
	C289.555908,237.828979 288.685394,239.076050 289.000000,242.306824 
M218.000000,174.500000 
	C218.000000,215.995316 218.000000,257.490631 218.000000,298.985962 
	C218.000000,327.316101 218.040741,355.646423 217.941132,383.976196 
	C217.930374,387.031647 218.543396,388.751923 221.863708,389.481079 
	C229.392776,391.134399 236.825043,393.223511 244.315994,395.056488 
	C257.454865,398.271484 270.638916,397.110168 283.867554,395.646484 
	C283.867554,312.388245 283.867554,229.429794 283.867554,145.821350 
	C279.041687,145.206009 274.239410,144.694382 269.470001,143.967194 
	C253.325653,141.505630 237.535294,143.311966 221.871140,147.489746 
	C218.682236,148.340271 217.835587,149.900711 217.933304,153.004410 
	C218.148209,159.830200 218.000000,166.667435 218.000000,174.500000 
z"/>
<path fill="#1C1B17" opacity="1.000000" stroke="none" 
	d="
M218.000000,174.000000 
	C218.000000,166.667435 218.148209,159.830200 217.933304,153.004410 
	C217.835587,149.900711 218.682236,148.340271 221.871140,147.489746 
	C237.535294,143.311966 253.325653,141.505630 269.470001,143.967194 
	C274.239410,144.694382 279.041687,145.206009 283.867554,145.821350 
	C283.867554,229.429794 283.867554,312.388245 283.867554,395.646484 
	C270.638916,397.110168 257.454865,398.271484 244.315994,395.056488 
	C236.825043,393.223511 229.392776,391.134399 221.863708,389.481079 
	C218.543396,388.751923 217.930374,387.031647 217.941132,383.976196 
	C218.040741,355.646423 218.000000,327.316101 218.000000,298.985962 
	C218.000000,257.490631 218.000000,215.995316 218.000000,174.000000 
z"/>
</svg>